<?xml version="1.0" encoding="utf-8"?>
<!-- Generator: Adobe Illustrator 19.0.0, SVG Export Plug-In . SVG Version: 6.00 Build 0)  -->
<svg version="1.1" id="Layer_1" xmlns="http://www.w3.org/2000/svg" xmlns:xlink="http://www.w3.org/1999/xlink" x="0px" y="0px"
	 viewBox="0 0 504.3 159.6" style="enable-background:new 0 0 504.3 159.6;" xml:space="preserve">
<style type="text/css">
	.st0{fill:#FFFFFF;}
	.st1{fill-rule:evenodd;clip-rule:evenodd;fill:#FFFFFF;}
</style>
<g>
	<rect class="st0" width="504.3" height="159.6"/>
	<path class="st1" d="M63,63.4c6.3-7.4,14.3-11.8,23.3-14.6c6.8-2.1,13.7-2.7,20.5-0.6c11.2,3.5,17.4,14.4,13.8,25.7
		c-8.1,25.5-24.4,43.4-51.1,49.5c-18.4,4.2-35.5-4.9-40.4-22.6c-2.9-10.7-0.9-21,3.5-30.9C42.8,46.8,61,33,85,26.2
		c4.2-1.2,8.7-1.7,13-2.4c0.7-0.1,1.5-0.4,2-0.1c1.6,0.7,4.2,1.4,4.5,2.5c0.7,2.4-1.8,3-3.7,3.3c-2.8,0.5-2.9,2.1-1.7,4.2
		c0.6,1.1,1.4,2.1,2.1,3.1c2.3,3.4,1.6,5.2-2.5,5.8c-8.2,1-16.1,3.1-23.5,6.6c-14,6.6-24.7,16.5-31.2,30.7
		c-2.3,5.2-3.3,10.7-2.1,16.3c2.2,10.2,11.1,16.3,22.2,15.6c13.1-0.8,23.1-7.7,32.2-16.3c6.6-6.1,12-13,14-22.1
		c2.2-9.9-3.7-17.4-13.7-18c-11.2-0.6-21.3,2.9-31.2,7.4c-0.6,0.3-1.2,0.5-1.9,0.8C63.4,63.6,63.3,63.5,63,63.4"/>
	<path class="st1" d="M257.9,87.3c-4.8,7.8-9.7,15.7-14.6,23.5c-0.7,1.2-1.3,2.5-2.2,3.4c-1,0.9-2.4,1.4-3.6,2
		c-0.6-1.1-1.5-2.3-1.6-3.4c-0.6-7.6-1-15.2-1.4-22.9c-0.1-1.2-0.3-2.4-1.1-3.7c-2.1,7-4.2,13.9-6.3,20.9c-0.5,1.5-1,3-1.4,4.6
		c-1.7,8-3.3,6.9-10.8,6.8c-2.3,0-2.6-1.7-2-3.7c3.9-13.2,7.8-26.3,11.7-39.5c2.4-7.9,4.8-15.8,7-23.8c0.7-2.5,1.8-3.5,4.5-3.5
		c8.4,0.1,8-0.5,8,8c0,10.3,0,20.7,0,31c0.4,0.1,0.8,0.1,1.2,0.2c0.4-0.4,0.9-0.8,1.2-1.3c6.9-11.2,13.9-22.5,20.8-33.7
		c2.3-3.7,8.7-5.9,12.4-3.9c0.8,0.4,1.3,2.8,0.9,4c-2.2,8-4.6,15.9-7,23.9c-3.7,12.5-7.3,25.1-11.1,37.6c-0.5,1.6-1.4,4.2-2.6,4.4
		c-2.8,0.6-5.9,0.3-8.8-0.1c-0.4-0.1-0.9-2.8-0.6-4.1c2.4-8.4,5-16.7,7.5-25.1c0.1-0.4,0.2-0.9,0.2-1.3
		C258.3,87.4,258.1,87.3,257.9,87.3"/>
	<path class="st1" d="M312.8,84.9c8.6,10.6,5.8,26.1-5.5,31.5c-2.4,1.1-5.2,1.8-7.8,1.9c-7.4,0.3-14.8,0.2-22.2,0.1
		c-4.7,0-6.3-2.3-5-6.8c5.7-19.5,11.4-39,17.1-58.5c1.2-4.2,2.6-5.2,7.2-5.2c5.1,0,10.3,0,15.4,0c13.7,0,20.5,10.2,15.3,22.9
		c-2.3,5.5-6.1,9.5-11.3,12.4C315,83.8,314,84.3,312.8,84.9 M285.3,107.5c4.4,0,7.9-0.1,11.4,0c8.1,0.4,12.5-7.9,9.9-15.1
		c-0.6-1.6-2.4-3.5-4-3.8c-3.3-0.6-6.8-0.4-10.2-0.4c-0.5,0-1.4,0.5-1.6,1C289,95.1,287.2,100.9,285.3,107.5z M301.3,76.7
		c1.6,0,3.2,0.2,4.8,0c5-0.6,8.8-3,10.7-7.8c2.2-5.7-0.5-10.1-6.6-10.5c-2.3-0.2-4.6,0.1-6.8-0.1c-2.6-0.2-4,0.7-4.5,3.3
		c-0.6,2.9-1.6,5.7-2.5,8.5C294.2,76.7,294.1,76.7,301.3,76.7z"/>
	<path class="st1" d="M400.8,88.8c3.2,6.4,6.2,12.3,9.2,18.3c1.3,2.6,2.7,5.2,4,7.9c1,2.1,0.2,3.2-2.1,3.4
		c-7.2,0.7-7.7,0.4-11.1-6.1c-3.6-6.8-7.1-13.7-10.9-20.5c-0.7-1.3-2.2-2.3-3.3-3.4c-0.7,1.2-1.6,2.4-2,3.7
		c-2.2,7.4-4.4,14.8-6.5,22.2c-0.9,3.1-2.7,4.2-6,4.1c-7-0.2-7.1-0.1-5.1-6.7c5.9-19.9,11.8-39.8,17.7-59.7c0.9-3,2.5-4.3,5.6-4.2
		c6,0.2,12.1,0,18.1,0.1c10.8,0.1,17.2,7.9,15.4,18.6c-1.9,11-8.1,18.3-19.1,21.1C403.7,87.9,402.6,88.3,400.8,88.8 M396.1,78.2
		c1.7,0,3.4,0.2,5.1,0c6.5-0.7,10.7-4.9,11.6-11.4c0.5-3.9-1.1-6.6-5-7.2c-3.6-0.5-7.3-0.6-10.8-0.3c-1.3,0.1-2.9,1.7-3.5,3
		c-1.2,2.8-1.7,5.8-2.6,8.8C388.7,78.3,388.6,78.2,396.1,78.2z"/>
	<path class="st1" d="M148.1,69c4.5-5.2,9-9.8,12.6-15c3.5-5,7.8-7.2,13.8-6.3c1.9,0.3,3.8,0,6.6,0c-1.1,1.5-1.7,2.5-2.5,3.4
		c-8.2,9.8-16.3,19.6-24.6,29.3c-1.5,1.8-1.8,3.3-1.1,5.5c2.8,9.5,5.3,19,8.1,28.5c0.8,2.7,0.3,3.8-2.7,3.8
		c-9.2,0.2-9.2,0.3-11.9-8.6c-1.4-4.8-2.7-9.6-4.2-15c-3.3,3.8-6.2,7.2-9.1,10.6c-2.8,3.3-5.7,6.6-8.3,10c-1.7,2.2-3.7,3.2-6.5,3
		c-2.3-0.1-4.6,0.1-6.8-0.1c-0.9-0.1-1.8-0.6-2.7-0.9c0.4-0.9,0.6-1.9,1.2-2.6c8.1-9.7,16-19.6,24.4-29c3.2-3.6,3.8-6.7,2.3-11.2
		c-2.6-7.9-4.6-15.9-6.8-23.9c-0.2-0.7-0.3-1.5-0.5-2.8c4,0,7.7-0.1,11.4,0.1c0.7,0,1.7,1.3,2,2.2C144.5,56.3,146.2,62.3,148.1,69"
		/>
	<path class="st1" d="M449.2,118.4c0.8-3.1,1.4-5.4,2.1-8c-2.1,1.5-3.9,3-5.8,4.3c-10.1,6.7-20.5,2.8-23.5-8.9
		c-3.4-13,0.6-24.6,7.7-35.2c11-16.5,27-23.3,46.5-22.7c2.8,0.1,3.5,1.4,2.8,4c-1.8,5.8-1.7,5.6-7.5,6.3c-15.6,2-29.1,7.8-36.7,22.6
		c-3.2,6.1-5.1,12.7-3.1,19.7c1.3,4.6,4.8,6.3,9.2,4.6c5.9-2.2,9.5-7,12.5-12.1c2.3-3.9,4.4-8,6.2-12.1c1.4-3.2,3.4-4.4,6.8-4.3
		c6.6,0.2,6.7,0.1,4.9,6.3c-3.2,10.9-6.5,21.7-9.7,32.6c-0.6,2-1.8,3-4,2.9C455,118.4,452.5,118.4,449.2,118.4"/>
	<path class="st1" d="M340.1,118.5c-4.2,0-8.4,0-12.7,0c-4.6,0-5.3-0.9-4.1-5.3c4.4-15.1,8.9-30.3,13.3-45.4
		c1.5-5.1,3.1-10.2,4.5-15.4c0.8-3.2,2.4-4.7,6-4.6c9.1,0.2,18.2,0.1,27.3,0.1c3.6,0,3.9,0.5,2.9,3.7c-2.9,8.8-1.1,7.4-10.1,7.5
		c-4.1,0-8.2,0-12.3,0c-2.3,0-3.8,0.9-4.4,3.4c-0.8,3.4-2,6.7-3,10.1c-1.1,3.9-0.5,4.7,3.5,4.7c4.9,0,9.8,0.1,14.7,0
		c2.7-0.1,3.5,1.1,2.8,3.6c-0.5,1.9-0.8,3.9-1.7,5.5c-0.6,1-2.2,1.9-3.4,2c-5.7,0.2-11.4,0.2-17.1,0.1c-2.6-0.1-4,0.9-4.6,3.4
		c-1,3.8-2.2,7.6-3.4,11.4c-0.9,2.6,0.4,3.4,2.6,3.4c4.9,0,9.8,0,14.7,0c4.7,0,5.1,0.6,3.8,4.9c-2.3,7.5-1.2,6.9-9.6,6.9
		C346.8,118.5,343.4,118.5,340.1,118.5"/>
	<path class="st1" d="M205.1,47.9c5,0,10,0,15,0c2.2,0,3.1,0.7,2.5,3.1c-2,8.1-1.9,8.1-10.2,8.1c-4.1,0-8.2,0-12.3,0
		c-2.4,0-3.8,0.9-4.4,3.3c-1.1,4.1-2.3,8.1-3.6,12.1c-0.8,2.7,0,3.9,2.8,3.9c4.9,0,9.8,0,14.7,0c4.2,0,4.7,0.7,3.4,4.5
		c-0.2,0.8-0.5,1.5-0.6,2.3c-0.4,2.7-2,3.4-4.6,3.3c-5.5-0.1-10.9,0.1-16.4-0.1c-2.6-0.1-4,0.9-4.7,3.4c-1,3.8-2.2,7.6-3.3,11.4
		c-0.7,2.5-0.1,3.9,2.9,3.9c5-0.1,10-0.1,15,0c3.7,0.1,4.2,0.7,3.2,4.3c-0.2,0.7-0.3,1.3-0.5,2c-1.4,4.9-1.6,5.1-6.8,5.1
		c-8.3,0-16.6,0-25,0c-4.3,0-5.1-1-3.8-5.5c2.9-10,5.8-20,8.8-30.1c3.1-10.4,6.3-20.9,9.2-31.3c0.8-2.8,2-3.9,4.9-3.7
		C196,48.1,200.6,47.9,205.1,47.9"/>
</g>
</svg>
